# xmcd CD database file
#
# Track frame offsets:
#	150
#	9656
#	20216
#	30823
#	45355
#	56272
#	67704
#	81883
#	98836
#	112582
#
# Disc length: 1668 seconds
#
# Revision: 1
# Processed by: cddbd v1.5.2PL0 Copyright (c) Steve Scherf et al.
# Submitted via: CDex 1.91
#
DISCID=6206820a
DTITLE=Wild Side of Country - Country Outlaws
DYEAR=1900
DGENRE=Country
TTITLE0=the legend of bonnie and clyde - Merle Haggard
TTITLE1=only daddy that'll walk the line - Waylon Jennings
TTITLE2=in the jailhouse now - Webb Pierce
TTITLE3=I'm the only hell - Johnny Paycheck
TTITLE4=wine me up - Faron Young
TTITLE5=honky tonk wine - Mickey Gilley
TTITLE6=the lord knows I'm drinking - Cal Smith
TTITLE7=I washed my hands - Stonewall Jackson
TTITLE8=I believe the south is going to rise again - Tanya Tucker
TTITLE9=drivin nails in my coffin - Ernest Tubb wt. Boxcar Willie
EXTD=
EXTT0=
EXTT1=
EXTT2=
EXTT3=
EXTT4=
EXTT5=
EXTT6=
EXTT7=
EXTT8=
EXTT9=
PLAYORDER=
